<svg id="Layer_1" data-name="Layer 1" xmlns="http://www.w3.org/2000/svg" xmlns:xlink="http://www.w3.org/1999/xlink" viewBox="0 0 175.44 201.36"><defs><style>.cls-1{fill:url(#linear-gradient);}</style><linearGradient id="linear-gradient" x1="87.72" x2="87.72" y2="201.36" gradientUnits="userSpaceOnUse"><stop offset="0" stop-color="#7fe5ad"/><stop offset="0.2" stop-color="#7be2ae"/><stop offset="0.38" stop-color="#71d9b2"/><stop offset="0.55" stop-color="#5fcab7"/><stop offset="0.71" stop-color="#45b4c0"/><stop offset="0.87" stop-color="#2598ca"/><stop offset="1" stop-color="#037cd5"/><stop offset="1" stop-color="#025ea2"/><stop offset="1" stop-color="#01365d"/><stop offset="1" stop-color="#01192b"/><stop offset="1" stop-color="#00070c"/><stop offset="1"/></linearGradient></defs><path class="cls-1" d="M175.2,105.12V101l-.24-.72v-2.4l-.24-1v-.72l-.24-.72V93.84l-.24-.72v-1l-.24-.72-.24-.72V90l-.24-.72-.24-.72v-.72l-.24-1-.24-.72-.24-.72-.24-.72-.24-.72-.24-.72-.24-.72-.24-.72-.24-.48-.24-.72-.24-.72-.24-.72-.24-.72-.24-.72-.48-.48-.24-.72-.24-.72-.48-.48-.24-.72-.24-.72-.48-.48-.24-.72-.48-.48-.24-.72-.48-.48-.48-.48-.24-.72-.48-.48-.48-.72-.24-.48-.48-.48-.48-.48-.48-.72-.48-.48-.24-.48-.48-.48-.48-.48-.48-.48-.48-.48-.48-.48-.48-.48-.48-.48-.48-.48-.72-.24L157,61l-.48-.48L156,60l-.48-.24-.72-.48-.48-.48-.48-.24-.72-.48-.48-.24-.48-.48-.72-.24-.48-.24-.72-.48-.48-.24-.72-.24-.48-.24-.72-.48-.48-.24-.72-.24-.48-.24-.72-.24-.72-.24-.48-.24-.72-.24-.48-.24-.72-.24h-.72l-.48-.24-.72-.24-.72-.24h-.48l-.72-.24-.72-.24H137l-.48-.24h-.72l-.72-.24-.48-.24H133.2l-.72-.24H132l-.72-.24h-1.44l-.48-.24h-1.92l-.72-.24h-3.84l-1.2-.24h-.48l-.24.24h-3.12l-.24.24h-3.36l-.48.24h-3.12l-.48.24h-2.64l-.48.24H104.4l-.72.24h-2.4V45.84l.24-.48v-1l.24-.48v-.48L102,43v-1.2l.24-.48.24-.48v-.48l.24-.72v-.48l.24-.48.24-.48v-.72l.24-.48.24-.48.24-.72.24-.48V34.8l.24-.72.24-.48.24-.48.24-.48.24-.48.24-.72.24-.48.24-.48.24-.48.24-.48.24-.48.24-.48.24-.48.48-.48.24-.48.24-.48.24-.48.24-.48.48-.48.24-.24.24-.48.24-.48.48-.24.24-.48.24-.24.48-.48.24-.48.24-.24.48-.24.24-.48.48-.24.24-.48.24-.24.48-.24.24-.48.24-.24L115,19l.24-.24.48-.48.24-.24.24-.24.48-.24.24-.24.48-.24.24-.24.24-.24.48-.24.24-.24.24-.24.24-.24h.48l.24-.24.24-.24.48-.24h.24v.72l-.24.24v1l-.24.72-.24.72-.24.72-.24.72-.24.72v.72l-.24.72-.48.72-.24.72v.48l-.24.24-.24.72-.24.72-.24.48-.24.72-.48.72-.24.72-.24.48-.48.72-.24.72-.48.72-.24.48-.48.72-.24.72-.48.48-.24.72-.48.72-.48.72-.24.48-.48.72-.48.72-.24.72-.48.48-.48.72-.48.72-.48.48-.48.72-.72,1.44-.24.24-.24.24H120l3.6.24h.72V43l.48-.72.48-.72.24-.72.48-.72.24-.72.24-1,.48-.72.24-.72.24-.72.48-1,.24-.72.24-.72.24-1,.24-.72.24-.72.48-1,.24-.72.24-.72.24-1v-.72l.24-.72.24-.72.24-1,.24-.72v-.72l.24-.72.24-1v-.72l.24-.72.24-.72V19l.24-.72V16.8l.24-.72V13.92l.24-.48V10.8l-.24-.72V7.68l-.24-.24v-1l-.24-.24V5.76L132,5.52V5.28L131.76,5V4.56l-.24-.24V4.08l-.24-.24L131,3.6l-.24-.48-.24-.24-.24-.24-.24-.24-.24-.24-.24-.24-.24-.24-.24-.24-.48-.24L128.4,1l-.24-.24h-.48l-.24-.24H127l-.24-.24H126L125.52,0h-2.4l-.48.24h-.72l-.24.24H121l-.48.24h-.24l-.48.24h-.24l-.24.24h-.48l-.24.24-.48.24h-.24l-.48.24-.24.24-.48.24h-.24l-.48.24-.24.24-.48.24-.48.24-.24.24-.48.24-.48.24-.24.24-.48.24-.48.24-.48.24-.24.24-.48.24-.48.48-.24.24-.48.24-.48.48L109,7.2l-.48.24-.24.48-.48.24-.48.48-.48.24-.24.48-.48.48-.48.24-.48.48-.48.48-.24.48-.48.24-.48.48-.48.48-.24.48-.48.48-.48.48-.48.48-.24.48-.48.48-.48.48-.24.72-.48.48-.48.48-.24.48-.48.72-.48.48-.24.72-.48.48-.24.72-.48.48-.24.72-.48.48-.24.72-.24.72-.48.48-.24.72-.24.72-.48.72-.24.48-.24.72-.24.72-.24.72-.24.72-.48.72-.24.72-.24.72-.24.72v.48l-.24.72-.24.72-.24.72-.24.72v.72l-.24.72-.24.72v.72l-.24.72-.24.72v.72l-.24.72v1.2l-.24.72v1.44l-.24.72v5.28l.24.48v1.2L89,54v.48l.24.48v.48l.24.48v.24l.24.24v.48l.24.24.24.24v.48l.24.24.24.24v.48L91,59l.24.48h.24v.24l.24.24.24.24.24.24v.24h.24l.24.24.24.24.24.24.24.24h.24v.24h.24v.24h.48l.24.24.24.24H95l.24.24h.24l.24.24H96l.24.24h.48l.48.24.48.24h.48l.48.24h1l.48.24h3.84l.48-.24h1.44l1-.24h1l1-.24,1.2-.24h1l1-.24h1l1-.24h2.16l1-.24h6.48l1,.24h2.4l1,.24h1.2l1,.24H131l1,.24,1,.24h.72l.48.24h.48l.48.24h.48l.48.24h.48l.72.24.48.24h.48l.48.24.48.24h.48l.48.24.48.24h.48l.48.24.48.24.48.24.24.24.48.24h.48l.48.24.48.24.24.24.48.24.48.24.48.24.24.24.48.24.48.48.24.24.48.24.48.24.24.24.48.48.24.24.48.24.24.24.48.48.24.24.48.24.24.48.24.24.48.48.24.24.24.48.48.24.24.48.24.48.48.24.24.48.24.24.24.48.24.48.24.48.48.24.24.48.24.48.24.48.24.48.24.48.24.48.24.48.24.48.24.48.24.48v.48l.24.48.24.48.24.48.24.72v.48l.24.48.24.48.24.72v.48l.24.48.24.72v.48L161,91v.48l.24.72v.48l.24.72v.72l.24.48v.72L162,96v1.2l.24.72v1.44l.24.72v3.36l.24.72v7.68l-.24.72v3.84H160.8l-5-.24-40.8-.72H104.64l-5-.24h-1l-.24.24h-1v.24H97v.24h-.24l-.24.24-.24.24H96l-.24.24v.24h-.24v.24h-.24l-.24.24-.24.72-12,15.84-1.44,2.16-.48.48-.24.24v-.24l-.24-.24-1-2.4-3.84-9.84L67.68,104.4,59.76,84.72l-2.16-5v-.24l-.24-.24V79l-.24-.24-.24-.24v-.24h-.24V78H56.4l-.24-.24-.24-.24-.24-.24h-.24L55.2,77h-.48V76.8h-1l-.24-.24H52.8l-.24.24h-1l-.24.24h-.24l-.24.24h-.24l-.24.24-.24.24h-.24V78h-.24v.24h-.24v.24l-.24.24L49,79v.24l-.24.24v.24l-.24.24v.24l-.24.72L47,83.76l-2.4,5.76-8.88,22.56L35,113.52v.72H31.92L27.36,114H18.24l-4.32-.24H13v-7.44l.24-1v-1.92l.24-1v-1l.24-1v-1l.24-1,.24-1,.24-1,.24-1v-1l.24-1,.24-1,.48-1,.24-.72.24-1,.24-1,.48-.72.24-1,.24-1,.48-.72L18,85l.48-.72.48-1,.48-.72.24-1,.48-.72.48-.72.48-.72.48-1,.48-.72L22.8,77l.48-.72.48-.72.72-.72.48-.72.72-.48.24-.48.24-.24.48-.48.24-.24.24-.24.48-.48.24-.24.48-.24.24-.24.48-.48.24-.24.48-.24L30,69.6l.48-.48.24-.24.48-.24.24-.24.48-.24.24-.24.48-.24.48-.24.24-.24.48-.24.48-.24.48-.24.24-.24.48-.24.48-.24.48-.24.24-.24L37.2,65l.48-.24.48-.24.48-.24h.48l.48-.24.48-.24.48-.24H41l.48-.24.48-.24.48-.24H43l.48-.24h.48l.48-.24.48-.24h.48l.48-.24h.72l.48-.24h1l.48-.24h.72l.48-.24h1.2l.48-.24h2.16l.72-.24h6L61,61h2.4l.72.24h1.2l.72.24h.72l.48.24h.72l.72.24h.72l.48.24h.72l.72.24.72.24.72.24h.72l.72.24.72.24.48.24.72.24.72.24.72.24.72.24.72.24.72.24.72.24.72.24.72.24,1,.24.72.48.72.24.24.24h.24v-.24l-.24-1.44V62.16l-.24-.72V59.52L84,59v-1.2l-.24-.72v-1.2l-.24-.48v-1.2l-.24-.48v-1.2L83,52.08v-.72l-.24-.48V50.4l-.24-.48v-1.2l-.24-.48v-.48l-.24-.48V46.8l-.24-.48v-.48l-.24-.48-.24-.48V44.4l-.24-.48v-.48L80.88,43v-.24l-.24-.48-.24-.48v-.48L80.16,41l-.24-.48v-.48l-.24-.48v-.24l-.24-.48-.24-.24v-.48L79,37.92l-.24-.48-.24-.24v-.48l-.24-.24L78,36v-.24l-.24-.48L77.52,35l-.24-.24L77,34.32v-.24l-.24-.24-.24-.24-.24-.48v-.24l-.24-.24-.24-.24-.24-.24-.24-.24-.24-.24-.24-.48V31l-.24-.24-.48-.48-.48-.48-.48-.24L72.72,29l-.48-.48L72,28.32l-.48-.48L71,27.6l-.72-.48-.48-.24-.48-.24-.48-.24-.48-.48-.48-.24-.48-.24h-.72v.24l-.48,1.2L65.52,29l-1.68,4.32-1,2.4-.24,1L62.4,37v.24h.24l.24.24h.24l.24.24.24.24h.24l.24.24.24.24.24.24.24.24.24.24v.24l.24.24.24.24.24.24.24.24.24.48.24.24v.24l.24.24V42H67v.24l.24.24v.24l.24.24v.24l.24.24v.24l.24.24v.48l.24.48v.24l.24.24v.24l.24.24v.48l.24.24v.72l.24.24v.24l.24.48v.24l.24.48v.24h-.72l-1-.24H67.2l-.72-.24H64.8l-.72-.24H61.2l-1-.24H55.92l-.72.24H52.32l-.72.24H50.16l-.72.24H48l-.48.24H46.8l-.72.24h-.72l-.72.24-.48.24h-.72l-.72.24L42,50.4h-.48l-.72.24-.72.24-.48.24-.72.24h-.72l-.48.24-.72.24-.72.24-.48.24-.72.24-.48.24-.72.24-.48.24-.72.24-.48.48-.48.24-.72.24-.48.24-.72.24-.48.48-.48.24-.72.24-.48.48-.48.24-.48.24-.72.48-.48.24-.48.48-.48.24-.48.24-.48.48-.48.24-.48.48-.72.48-.48.24-.48.48-.48.24-.48.48-.24.48-.48.24-.48.48-.48.48-.48.48-.48.24-.48.48-.24.48-.48.48L15.6,66l-.48.24-.24.48-.48.48-.48.48-.24.48-.48.48-.24.48-.48.48-.24.48-.48.48-.24.48-.48.48L10.8,72l-.48.48-.24.48-.24.48-.48.48-.24.48-.24.48-.48.48-.24.48-.24.72L7.68,77l-.24.48L7.2,78,7,78.48l-.24.72-.48.48L6,80.16l-.24.48-.24.48v.72l-.24.48L5,82.8l-.24.48-.48,1.2-.48,1-.24,1.2-.48,1.2-.24,1L2.64,90,2.4,91.2l-.48,1-.24,1.2-.24,1.2-.24,1v1.2L1,97.92l-.24,1.2-.24,1v1.2l-.24,1.2v2.4l-.24,1V114l.24,1.2v2.4l.24,1v1.2L.72,121v1.2l.24,1.2.24,1v1.2l.24,1.2.24,1.2.24,1,.24,1.2.24,1.2.24,1.2.24,1,.24,1.2.24,1.2.48,1,.24,1.2.24,1,.48,1.2.24,1,.24,1.2.48,1,.24,1.2.48,1,.24,1.2.48,1,.48,1,.24,1.2.48,1,.48,1,.48,1,.48,1,.24,1.2.48,1,.48,1,.48,1,.48,1,.48,1,.48,1,.48.72.48,1,.48,1,.48,1,.48.72.72,1,.48.72.48,1,.48.72.48,1,.72.72.48,1,.48.72.48.72.72.72.48,1,.48.72.72.72.48.72.48.72.48.72.72.72.48.48.72.72.48.72.48.72.72.48.48.72.48.72.72.48.48.72.48.48L31,185l.48.72.72.48.48.48.48.72.72.48.48.48.48.48.72.48.48.48.48.48.48.48.72.48.48.24.48.48.48.48.48.48.72.24.48.48.48.24.48.48.48.24.48.48.48.24.48.48.72.24.48.24.48.24.48.48.48.24.48.24.48.24.48.24.48.24.48.24.48.24.48.24.48.24.48.24.48.24h.48l.48.24.48.24.48.24h.48l.48.24h.48l.24.24h.48l.48.24h.72l.48.24h5.28l.48-.24h1l.48-.24h.48l.48-.24h.48l.48-.24h.48l.48-.24h.48l.48-.24.24-.24.48-.24h.48l.48-.24.48-.24.24-.24.48-.24.48-.24.48-.24.24-.24,1-.48.72-.48.72-.48,1-.48.72-.72,1-.48,1.44-1.2,1-.48.72-.48.72-.48,1-.72.72-.48.72-.48.48-.24.48-.24.24-.24H85l.24-.24.48-.24.48-.24.24-.24h.48l.24-.24.48-.24h.24l.24-.24.48-.24h.24l.24-.24h.72l.24-.24h.72L91,187h3.6l.24.24h.72l.24.24h.48l.24.24h.24l.48.24h.24l.48.24h.24l.48.24.48.24.24.24h.48l.48.24.24.24.48.24.48.24.24.24.48.24.48.24.48.24.48.24.48.24.72.48,1,.48,1,.48,1,.48,1,.48,1,.48,1,.48.72.24.48.24.48.24.48.24.48.24.48.24.48.24H115l.48.24.48.24h.48l.72.24.48.24h.48l.48.24h1.2l.48.24h2.16l.72.24h.48l.48-.24h2.64l.48-.24h1l.72-.24h.48l.48-.24h.48l.48-.24.48-.24h.48l.48-.24.48-.24h.48l.48-.24.48-.24.48-.24.48-.24.48-.24.48-.24.48-.24.24-.24.48-.24.48-.24.48-.24.48-.24.48-.24.48-.24.48-.48.24-.24.48-.24.48-.24.48-.48,1-.48.72-.72,1-.72.72-.72.48-.24.48-.48.48-.24.24-.48.48-.48.48-.24.48-.48.24-.48L149,185l.48-.48.48-.48.24-.48.48-.48.48-.48.48-.48.24-.48.48-.48.48-.48.24-.48.48-.48.48-.48.48-.48.24-.48.48-.72.48-.48.24-.48.48-.48.24-.72.48-.48.48-.48.24-.72.48-.48.24-.72.48-.48.24-.72.48-.48.24-.72.48-.72.24-.48.48-.72.24-.72L162,167l.24-.72.48-.72.24-.72.48-.72.24-.72.24-.48.48-.72.24-.72.24-.72.48-.72.24-.72.24-.72.24-.72.48-1,.24-.72.24-.72.24-.72.24-.72.24-.72.24-1,.48-.72.24-.72.24-1,.24-.72.24-.72.24-1,.48-1.68.24-1.44.48-1.68.48-1.68.48-1.68.24-1.68.48-1.68.24-1.92.24-1.68.24-1.68.48-1.68.24-1.68.24-1.68.24-1.92v-1.68l.24-.72v-1.68l.24-1v-1.68l.24-1v-5l.24-1v-4.08Zm-16.32,33.12-1,4.32-1.2,4.32L155.28,151l-1.44,3.84-1.44,3.6-1.68,3.36-1.92,3.12-1.68,2.88-1.92,2.64-1.92,2.4L141.36,175l-1.92,1.92-1.92,1.68-1.92,1.68-1.92,1.2-1.92,1.2-1.68,1-1.68.72-1.68.48-1.44.24-1.68.24h-1.44l-1.68-.24-1-.24-1-.48-1-.24-1-.48-1-.48-1.2-.72-2.4-1.2-2.64-1.44-2.88-1.68-2.88-1.2-1.68-.72-1.44-.48-1.68-.48-1.68-.48-1.92-.24-1.68-.24H91.92l-1.92.24-1.68.24-1.68.48-1.68.48-1.68.72-3.12,1.44-2.88,1.44L74.4,181.2l-2.64,1.68-1.2.72-1,.72-1.2.72-1,.72-1,.48-.72.48-1,.48-.72.48-.72.24-.72.48-1.2.48H58.32l-1.44-.48-.72-.24-.72-.48-1-.48-1-.48-1-.48-1-.72-1.2-.72-1.2-.72-1.2-1-1.44-1-1.2-1L43.92,180l-1.2-1.2-1.44-1.44-1.44-1.2-1.44-1.68L37,173l-1.44-1.68-1.44-1.68-1.2-1.92L30,163.92l-2.64-4.08-1.44-2.16-1.2-2.4-1.2-2.16-1.2-2.4-1.2-2.4-1.2-2.64L19,143l-1-2.64-1-2.64-.72-2.88-.72-2.64-.24-.72v-.24h4.32l3.36.24h6.72l3.36.24h6l.72-.24,1.44-.24,1.2-.24,1.44-.72,1.2-.72,1-.72,1-1,1-1,.48-.72.48-.72.48-1,.48-1,.48-1.2.48-1.2.72-1.44.48-1.68.72-1.68.24-.72.24-.24v.24L54,117.6l.72,1.92,1,1.92,1.68,4.32,3.6,8.88L62.64,139l1,1.92.72,1.92.72,1.92.72,1.44.48,1.44.48,1.44.48,1,.24.72.24.72.24.24.48,1.2.72,1.2,1,1,1,1,1,1,1.2.72,1.2.48,1.44.48,1.2.48h1.44l1.44.24,1.2-.24,1.44-.24L84,158.4l1.2-.48.48-.24.48-.24.72-.24.24-.24.48-.48.48-.24.24-.48.48-.48.24-.48.48-.72.72-.72,1-1.44,4.32-5.76,8.64-11.52,1.2-1.44V133l.24-.24,1,.24h9.12l14.88.24,29.52.48Z"/></svg>