<!-- Exported by Character Map UWP -->
<svg height="100%" viewBox="0 0 1024 1024" width="100%" xmlns="http://www.w3.org/2000/svg" xmlns:xlink="http://www.w3.org/1999/xlink">
  <path d="M0,512C0,465 6.08333,419.667 18.25,376C30.4167,332.333 47.6667,291.583 70,253.75C92.3333,215.917 119.083,181.417 150.25,150.25C181.417,119.083 215.917,92.3334 253.75,70C291.583,47.6667 332.333,30.4167 376,18.25C419.667,6.08337 465,0 512,0C559,0 604.333,6.08337 648,18.25C691.667,30.4167 732.417,47.6667 770.25,70C808.083,92.3334 842.583,119.083 873.75,150.25C904.917,181.417 931.667,215.917 954,253.75C976.333,291.583 993.583,332.333 1005.75,376C1017.92,419.667 1024,465 1024,512C1024,559 1017.92,604.333 1005.75,648C993.583,691.667 976.333,732.417 954,770.25C931.667,808.083 904.917,842.583 873.75,873.75C842.583,904.917 808.083,931.667 770.25,954C732.417,976.333 691.667,993.583 648,1005.75C604.333,1017.92 559,1024 512,1024C465,1024 419.667,1017.92 376,1005.75C332.333,993.583 291.583,976.333 253.75,954C215.917,931.667 181.417,904.917 150.25,873.75C119.083,842.583 92.3333,808.083 70,770.25C47.6667,732.417 30.4167,691.667 18.25,648C6.08333,604.333 0,559 0,512ZM960,512C960,471 954.667,431.417 944,393.25C933.333,355.083 918.25,319.417 898.75,286.25C879.25,253.083 855.833,222.833 828.5,195.5C801.167,168.167 770.917,144.75 737.75,125.25C704.583,105.75 668.917,90.6667 630.75,80C592.583,69.3334 553,64.0001 512,64C470.667,64.0001 430.917,69.3334 392.75,80C354.583,90.6667 318.917,105.75 285.75,125.25C252.583,144.75 222.417,168.083 195.25,195.25C168.083,222.417 144.75,252.583 125.25,285.75C105.75,318.917 90.6667,354.583 80,392.75C69.3333,430.917 64,470.667 64,512C64,553.333 69.3333,593.083 80,631.25C90.6667,669.417 105.75,705.083 125.25,738.25C144.75,771.417 168.083,801.583 195.25,828.75C222.417,855.917 252.583,879.25 285.75,898.75C318.917,918.25 354.583,933.333 392.75,944C430.917,954.667 470.667,960 512,960C553.333,960 593.083,954.667 631.25,944C669.417,933.333 705.083,918.25 738.25,898.75C771.417,879.25 801.583,855.917 828.75,828.75C855.917,801.583 879.25,771.417 898.75,738.25C918.25,705.083 933.333,669.417 944,631.25C954.667,593.083 960,553.333 960,512ZM288,416C288,407 289.667,398.667 293,391C296.333,383.333 300.917,376.583 306.75,370.75C312.583,364.917 319.333,360.333 327,357C334.667,353.667 343,352 352,352C360.667,352 368.917,353.667 376.75,357C384.583,360.333 391.417,364.917 397.25,370.75C403.083,376.583 407.667,383.417 411,391.25C414.333,399.083 416,407.333 416,416C416,425 414.333,433.333 411,441C407.667,448.667 403.083,455.417 397.25,461.25C391.417,467.083 384.667,471.667 377,475C369.333,478.333 361,480 352,480C343,480 334.583,478.333 326.75,475C318.917,471.667 312.167,467.167 306.5,461.5C300.833,455.833 296.333,449.083 293,441.25C289.667,433.417 288,425 288,416ZM608,416C608,407 609.667,398.667 613,391C616.333,383.333 620.917,376.583 626.75,370.75C632.583,364.917 639.333,360.333 647,357C654.667,353.667 663,352 672,352C680.667,352 688.917,353.667 696.75,357C704.583,360.333 711.417,364.917 717.25,370.75C723.083,376.583 727.667,383.417 731,391.25C734.333,399.083 736,407.333 736,416C736,425 734.333,433.333 731,441C727.667,448.667 723.083,455.417 717.25,461.25C711.417,467.083 704.667,471.667 697,475C689.333,478.333 681,480 672,480C663,480 654.583,478.333 646.75,475C638.917,471.667 632.167,467.167 626.5,461.5C620.833,455.833 616.333,449.083 613,441.25C609.667,433.417 608,425 608,416ZM272,688C272,679.333 275.167,671.833 281.5,665.5C287.833,659.167 295.333,656 304,656C309.333,656 313.5,656.75 316.5,658.25C319.5,659.75 322.833,662.167 326.5,665.5C341.5,678.167 355.75,689.333 369.25,699C382.75,708.667 396.667,716.833 411,723.5C425.333,730.167 440.667,735.25 457,738.75C473.333,742.25 491.667,744 512,744C541.333,744 568.417,739.75 593.25,731.25C618.083,722.75 642.167,709.667 665.5,692C671.167,687.667 676.5,683.333 681.5,679C686.5,674.667 691.833,670.167 697.5,665.5C701.167,662.5 704.5,660.167 707.5,658.5C710.5,656.833 714.667,656 720,656C728.667,656 736.167,659.167 742.5,665.5C748.833,671.833 752,679.333 752,688C752,692.667 751.167,696.667 749.5,700C747.833,703.333 745.5,706.833 742.5,710.5C737.167,716.833 730.583,723.25 722.75,729.75C714.917,736.25 706.583,742.5 697.75,748.5C688.917,754.5 680.083,760.083 671.25,765.25C662.417,770.417 654.333,774.833 647,778.5C626,789.167 604.083,796.75 581.25,801.25C558.417,805.75 535.333,808 512,808C488,808 464.417,805.583 441.25,800.75C418.083,795.917 395.833,788 374.5,777C370.167,775 364.667,772.083 358,768.25C351.333,764.417 344.25,760 336.75,755C329.25,750 321.667,744.667 314,739C306.333,733.333 299.333,727.583 293,721.75C286.667,715.917 281.583,710.083 277.75,704.25C273.917,698.417 272,693 272,688Z" fill="#000000" fill-opacity="1">
  </path>
</svg>